<?xml version="1.0" encoding="utf-8"?>
<!-- Generator: Adobe Illustrator 27.5.0, SVG Export Plug-In . SVG Version: 6.00 Build 0)  -->
<svg version="1.1" id="Capa_1" xmlns="http://www.w3.org/2000/svg" xmlns:xlink="http://www.w3.org/1999/xlink" x="0px" y="0px"
	 viewBox="0 0 700 700" style="enable-background:new 0 0 700 700;" xml:space="preserve">
<style type="text/css">
	.st0{fill:#00742A;stroke:#006837;stroke-miterlimit:10;}
	.st1{fill:#00AA21;stroke:#39B54A;stroke-miterlimit:10;}
	.st2{fill:#1ABF00;stroke:#1ABF00;stroke-miterlimit:10;}
	.st3{fill:#0083E9;stroke:#0083E9;stroke-miterlimit:10;}
	.st4{fill:#FFFFFF;stroke:#FFFFFF;stroke-miterlimit:10;}
	.st5{fill:#FFFFFF;}
</style>
<path class="st0" d="M344.78,684c0,0-284.63-6.06-329.78-355.27c0,0,41.22,123.13,102.08,135.25
	C177.93,476.09,303.56,463.97,344.78,684z"/>
<path class="st1" d="M355.58,684c0,0,444.62-46.43,313.1-543c0,0-11.99,170.63-144.38,223.59S355.58,684,355.58,684z"/>
<path class="st2" d="M524.29,348.91c0,0,107.09-34.32,124.75-191.77C649.04,157.15,499.65,167.24,524.29,348.91z"/>
<ellipse class="st3" cx="333" cy="450.85" rx="58.89" ry="69.64"/>
<path class="st4" d="M340.58,693"/>
<g>
	<g>
		<path class="st5" d="M522.63,351.41c6.34-19.3,14.15-38.11,23.36-56.22c9.17-18.03,19.71-35.37,31.52-51.8
			c6.63-9.22,13.66-18.14,21.07-26.75c1.25-1.46-0.86-3.59-2.12-2.12c-13.3,15.45-25.41,31.92-36.18,49.23
			c-10.82,17.39-20.3,35.61-28.33,54.45c-4.53,10.63-8.61,21.44-12.22,32.42C519.13,352.45,522.03,353.23,522.63,351.41
			L522.63,351.41z"/>
	</g>
</g>
</svg>
